<?xml version="1.0" encoding="UTF-8" standalone="no"?>
<svg
   xmlns:dc="http://purl.org/dc/elements/1.1/"
   xmlns:cc="http://creativecommons.org/ns#"
   xmlns:rdf="http://www.w3.org/1999/02/22-rdf-syntax-ns#"
   xmlns:svg="http://www.w3.org/2000/svg"
   xmlns="http://www.w3.org/2000/svg"
   xmlns:sodipodi="http://sodipodi.sourceforge.net/DTD/sodipodi-0.dtd"
   xmlns:inkscape="http://www.inkscape.org/namespaces/inkscape"
   width="75mm"
   height="19.573006mm"
   viewBox="0 0 75 19.573006"
   version="1.1"
   id="svg8952"
   inkscape:version="1.0.2-2 (e86c870879, 2021-01-15)"
   sodipodi:docname="LogoAMITRONICS.svg">
  <defs
     id="defs8946" />
  <sodipodi:namedview
     id="base"
     pagecolor="#ffffff"
     bordercolor="#666666"
     borderopacity="1.0"
     inkscape:pageopacity="0.0"
     inkscape:pageshadow="2"
     inkscape:zoom="5.6"
     inkscape:cx="125.4658"
     inkscape:cy="56.989073"
     inkscape:document-units="mm"
     inkscape:current-layer="Layer1000"
     showgrid="false"
     inkscape:window-width="1920"
     inkscape:window-height="1017"
     inkscape:window-x="-8"
     inkscape:window-y="-8"
     inkscape:window-maximized="1"
     inkscape:document-rotation="0" />
  <metadata
     id="metadata8949">
    <rdf:RDF>
      <cc:Work
         rdf:about="">
        <dc:format>image/svg+xml</dc:format>
        <dc:type
           rdf:resource="http://purl.org/dc/dcmitype/StillImage" />
        <dc:title></dc:title>
      </cc:Work>
    </rdf:RDF>
  </metadata>
  <g
     inkscape:label="Ebene 1"
     inkscape:groupmode="layer"
     id="layer1"
     transform="translate(-21.780048,-162.10551)">
    <g
       transform="matrix(1.834599,0,0,1.834599,-79.304645,-30.252002)"
       id="Layer1000"
       inkscape:export-xdpi="1600.9775"
       inkscape:export-ydpi="1600.9775">
      <g
         id="g37"
         transform="matrix(0.28977576,0,0,0.28977576,39.132691,74.466934)">
        <path
           d="m 81.925373,108.4896 c 0.9882,0 1.7943,0.8029 1.7943,1.7874 0,0.9841 -0.8061,1.7871 -1.7943,1.7871 -0.9884,0 -1.7943,-0.803 -1.7943,-1.7871 0,-0.9845 0.8059,-1.7874 1.7943,-1.7874 z"
           style="fill:#e30016;fill-opacity:1;fill-rule:evenodd"
           id="path7109"
           inkscape:connector-curvature="0"
           inkscape:export-xdpi="300.08279"
           inkscape:export-ydpi="300.08279" />
        <path
           d="m 132.44407,124.0117 c 0.9882,0 1.7943,0.8029 1.7943,1.7874 0,0.9844 -0.8061,1.7874 -1.7943,1.7874 -0.9884,0 -1.7943,-0.803 -1.7943,-1.7874 0,-0.9845 0.8059,-1.7874 1.7943,-1.7874 z"
           style="fill:#e30016;fill-opacity:1;fill-rule:evenodd"
           id="path7111"
           inkscape:connector-curvature="0"
           inkscape:export-xdpi="300.08279"
           inkscape:export-ydpi="300.08279" />
        <path
           d="m 55.099073,123.4351 4.2305,-10.6234 h 1.4978 l 4.1641,10.6234 h -1.6357 l -1.1609,-2.9425 h -4.5106 l -1.1807,2.9425 z m 3.0154,-4.0621 h 3.6426 l -1.8201,-4.5815 z m 9.4474,4.0621 v -10.6234 h 2.0956 l 2.9589,8.2224 3.04,-8.2224 h 1.8717 v 10.6234 h -1.4119 v -8.6389 l -2.939,7.9285 h -1.4659 l -2.8531,-7.9528 v 8.6632 z m 13.7246,0 v -10.6234 h 1.5128 v 10.6234 z m 7.8194,0 v -9.4963 h -3.7828 v -1.1271 h 9.0781 v 1.1271 h -3.7826 v 9.4963 z m 7.8168,0 v -10.6234 h 3.229297 c 1.0232,0 1.8079,0.2254 2.3514,0.6737 0.5461,0.4509 0.8189,1.105 0.8189,1.9602 0,0.6763 -0.1891,1.2764 -0.5656,1.8031 -0.3788,0.5245 -0.9099,0.9286 -1.5913,1.2128 l 3.5614,4.9736 h -1.857 l -3.042297,-4.4933 h -1.407 v 4.4933 z m 1.4978,-5.6204 h 0.4895 c 0.9322,0 1.643097,-0.1885 2.127597,-0.566 0.4845,-0.3797 0.7281,-0.9308 0.7281,-1.6586 0,-1.0999 -0.7971,-1.6513 -2.393197,-1.6513 h -0.952 z m 13.215497,5.885 c -1.515,0 -2.7251,-0.5071 -3.6301,-1.5189 -0.9051,-1.012 -1.3579,-2.3642 -1.3579,-4.0573 0,-1.693 0.4528,-3.0455 1.3579,-4.0573 0.905,-1.012 2.1151,-1.5191 3.6301,-1.5191 1.5125,0 2.7228,0.5071 3.6279,1.5191 0.9051,1.0118 1.3576,2.3643 1.3576,4.0573 0,1.6931 -0.4525,3.0453 -1.3576,4.0573 -0.9051,1.0118 -2.1154,1.5189 -3.6279,1.5189 z m 0,-1.1268 c 1.06,0 1.889,-0.3946 2.4868,-1.1809 0.595,-0.7866 0.8927,-1.8818 0.8927,-3.2833 0,-1.3915 -0.2977,-2.4794 -0.8927,-3.2609 -0.5978,-0.7816 -1.4268,-1.1736 -2.4868,-1.1736 -1.0625,0 -1.8912,0.392 -2.489,1.1736 -0.5953,0.7815 -0.8929,1.8694 -0.8929,3.2609 0,1.4015 0.2976,2.4967 0.8929,3.2833 0.5978,0.7863 1.4265,1.1809 2.489,1.1809 z m 8.1317,0.8622 v -10.6234 h 1.4831 l 5.3691,8.2076 v -8.2076 h 1.2962 v 10.6234 h -1.4757 l -5.3764,-8.2051 v 8.2051 z m 11.9241,0 v -10.6234 h 1.5128 v 10.6234 z m 13.2969,-0.5463 c -1.0529,0.5415 -2.2016,0.8109 -3.4461,0.8109 -1.6552,0 -2.9365,-0.4825 -3.8393,-1.4502 -0.9026,-0.9656 -1.3551,-2.3399 -1.3551,-4.1187 0,-1.7762 0.4599,-3.1508 1.3797,-4.1234 0.92,-0.9728 2.2185,-1.4603 3.8961,-1.4603 0.9494,0 2.0659,0.1545 3.3498,0.4656 v 1.4136 c -1.4611,-0.5023 -2.5875,-0.7521 -3.3795,-0.7521 -1.1583,0 -2.0535,0.3895 -2.6881,1.1685 -0.6345,0.7819 -0.9519,1.8818 -0.9519,3.3029 0,1.3596 0.3394,2.4279 1.0158,3.2072 0.6787,0.7816 1.6061,1.1711 2.7817,1.1711 1.0059,0 2.0831,-0.3089 3.2369,-0.9263 z m 2.5679,0.3455 v -1.492 c 1.2002,0.5536 2.1915,0.8306 2.9688,0.8306 0.5901,0 1.0673,-0.1568 1.4313,-0.4705 0.3616,-0.3136 0.5436,-0.7204 0.5436,-1.2226 0,-0.4166 -0.1179,-0.7717 -0.3567,-1.0632 -0.2386,-0.2918 -0.6762,-0.6175 -1.3158,-0.9753 l -0.7355,-0.4237 c -0.9076,-0.517 -1.5469,-1.0022 -1.9209,-1.4604 -0.3714,-0.4556 -0.5582,-0.9874 -0.5582,-1.59 0,-0.8233 0.2976,-1.4995 0.8929,-2.0263 0.5975,-0.5292 1.355,-0.7938 2.2773,-0.7938 0.8217,0 1.6898,0.1372 2.6024,0.4091 v 1.3794 c -1.1241,-0.441 -1.9627,-0.6614 -2.5162,-0.6614 -0.5215,0 -0.9542,0.1394 -1.2962,0.4164 -0.3418,0.2769 -0.5116,0.6272 -0.5116,1.0462 0,0.3553 0.1255,0.6689 0.3739,0.9409 0.2508,0.2719 0.7084,0.5978 1.37,0.9775 l 0.7649,0.4288 c 0.9223,0.5219 1.5668,1.0142 1.9308,1.4799 0.3664,0.4631 0.5484,1.0215 0.5484,1.6709 0,0.9236 -0.342,1.6659 -1.0232,2.2246 -0.6812,0.5611 -1.5888,0.8403 -2.7178,0.8403 -0.7207,0 -1.638,-0.1543 -2.7522,-0.4654 z"
           style="fill:#000000;fill-opacity:1;fill-rule:evenodd"
           id="path7113"
           inkscape:connector-curvature="0"
           inkscape:export-xdpi="300.08279"
           inkscape:export-ydpi="300.08279" />
        <path
           d="m 157.07777,130.6245 h -0.7802 l -0.3097,-0.7997 h -1.419 l -0.2926,0.7997 h -0.7603 l 1.3828,-3.5189 h 0.7575 z m -1.3197,-1.3918 -0.489,-1.306 -0.4795,1.306 z m 4.0335,1.3918 h -0.68 v -1.3011 c 0,-0.2752 -0.015,-0.4529 -0.0437,-0.534 -0.0291,-0.0803 -0.0769,-0.1434 -0.1422,-0.1886 -0.0655,-0.0442 -0.1438,-0.0672 -0.2356,-0.0672 -0.1184,0 -0.224,0.0321 -0.3175,0.096 -0.0929,0.0647 -0.1576,0.1491 -0.1922,0.2546 -0.0348,0.1059 -0.052,0.3008 -0.052,0.5859 v 1.1544 h -0.6803 v -2.5487 h 0.6314 v 0.3745 c 0.2248,-0.2884 0.5072,-0.4326 0.8479,-0.4326 0.1493,0 0.2876,0.0268 0.4115,0.08 0.1239,0.0543 0.2182,0.1223 0.2818,0.2059 0.0636,0.0833 0.1082,0.1777 0.133,0.2835 0.0258,0.1055 0.0379,0.2563 0.0379,0.4529 z m 0.6275,0.168 0.7769,0.0932 c 0.0133,0.0902 0.0428,0.1516 0.089,0.1854 0.0645,0.0482 0.1671,0.0721 0.3051,0.0721 0.1775,0 0.3105,-0.0264 0.3999,-0.0795 0.0594,-0.0354 0.1051,-0.0919 0.1355,-0.1706 0.0207,-0.0556 0.0315,-0.159 0.0315,-0.3095 v -0.372 c -0.2033,0.2753 -0.4605,0.4129 -0.7705,0.4129 -0.3451,0 -0.6186,-0.145 -0.8202,-0.4343 -0.158,-0.2294 -0.2373,-0.5137 -0.2373,-0.8545 0,-0.4276 0.1042,-0.7536 0.3117,-0.9797 0.2074,-0.2254 0.4651,-0.3383 0.7732,-0.3383 0.3175,0 0.5802,0.1384 0.7868,0.4153 v -0.3572 h 0.6364 v 2.2874 c 0,0.3005 -0.0247,0.525 -0.0753,0.6741 -0.0495,0.1492 -0.1197,0.2654 -0.2099,0.3507 -0.0907,0.0844 -0.2115,0.1507 -0.362,0.199 -0.1513,0.0477 -0.3421,0.0721 -0.5727,0.0721 -0.4362,0 -0.7451,-0.0743 -0.927,-0.2218 -0.1826,-0.1483 -0.2736,-0.3361 -0.2736,-0.5631 0,-0.0227 9e-4,-0.0499 0.002,-0.0817 z m 0.6074,-1.4951 c 0,0.2703 0.0531,0.4685 0.1587,0.5938 0.1056,0.1255 0.2353,0.1886 0.3908,0.1886 0.1662,0 0.3067,-0.0647 0.4214,-0.1936 0.114,-0.1286 0.1721,-0.3194 0.1721,-0.5727 0,-0.2637 -0.0556,-0.4594 -0.1654,-0.5872 -0.1093,-0.1288 -0.2481,-0.1927 -0.4157,-0.1927 -0.1637,0 -0.2976,0.0631 -0.4032,0.1886 -0.1056,0.1261 -0.1587,0.3169 -0.1587,0.5752 z m 3.9724,0.5159 0.6787,0.1124 c -0.0877,0.2465 -0.2249,0.4342 -0.4132,0.5628 -0.1878,0.1294 -0.4231,0.1933 -0.7061,0.1933 -0.4469,0 -0.7774,-0.1442 -0.9922,-0.4343 -0.1693,-0.2316 -0.2545,-0.5249 -0.2545,-0.878 0,-0.4228 0.1115,-0.7539 0.3347,-0.993 0.2223,-0.2393 0.5038,-0.3588 0.8443,-0.3588 0.3827,0 0.6845,0.1253 0.906,0.3758 0.2207,0.2509 0.3263,0.6341 0.3172,1.1511 h -1.7047 c 0.005,0.1999 0.0595,0.3556 0.1643,0.4664 0.1048,0.1113 0.2364,0.1669 0.3924,0.1669 0.1068,0 0.1961,-0.0285 0.2688,-0.0861 0.0728,-0.0581 0.1281,-0.1505 0.1643,-0.2785 z m 0.039,-0.6815 c -0.005,-0.1957 -0.0553,-0.3441 -0.1521,-0.4458 -0.0968,-0.1014 -0.2149,-0.1524 -0.3537,-0.1524 -0.1488,0 -0.2711,0.0543 -0.3678,0.1615 -0.0966,0.1066 -0.1444,0.2525 -0.1428,0.4367 z m 1.7099,1.4927 -0.8139,-2.5487 h 0.6613 l 0.4815,1.6703 0.443,-1.6703 h 0.6563 l 0.4289,1.6703 0.4917,-1.6703 h 0.6701 l -0.8255,2.5487 h -0.6538 l -0.443,-1.6394 -0.4356,1.6394 z m 3.8856,-1.7712 -0.6172,-0.1108 c 0.0694,-0.2464 0.1883,-0.4285 0.3578,-0.5472 0.1701,-0.1179 0.4215,-0.1776 0.7553,-0.1776 0.3042,0 0.5299,0.0359 0.6787,0.1072 0.1479,0.0712 0.2527,0.1614 0.313,0.2711 0.0603,0.1099 0.091,0.3106 0.091,0.6039 l -0.007,0.7874 c 0,0.2237 0.0107,0.389 0.0331,0.4956 0.0213,0.1055 0.0628,0.2204 0.1223,0.3416 h -0.6737 c -0.0172,-0.045 -0.0396,-0.1113 -0.0653,-0.199 -0.0108,-0.0403 -0.0191,-0.0664 -0.0238,-0.0795 -0.1167,0.1121 -0.2406,0.1957 -0.3728,0.2522 -0.1322,0.0559 -0.2735,0.0836 -0.4239,0.0836 -0.2647,0 -0.4738,-0.0713 -0.6259,-0.213 -0.1529,-0.1426 -0.2287,-0.3227 -0.2287,-0.5406 0,-0.1434 0.0346,-0.272 0.104,-0.3852 0.0694,-0.1129 0.1671,-0.199 0.2918,-0.2588 0.1247,-0.0598 0.3058,-0.1124 0.5412,-0.1573 0.3175,-0.059 0.5382,-0.1146 0.6604,-0.1656 v -0.0672 c 0,-0.1302 -0.0321,-0.222 -0.0965,-0.2777 -0.0644,-0.0548 -0.1861,-0.0828 -0.3653,-0.0828 -0.1217,0 -0.2157,0.0239 -0.2835,0.0713 -0.0678,0.0469 -0.1225,0.1297 -0.1646,0.2484 z m 0.9099,0.5471 c -0.0865,0.0288 -0.2248,0.0631 -0.414,0.1034 -0.1883,0.04 -0.3117,0.0795 -0.3703,0.1171 -0.0885,0.063 -0.133,0.1417 -0.133,0.2376 0,0.0949 0.0357,0.176 0.1067,0.2448 0.0711,0.0689 0.161,0.1034 0.2711,0.1034 0.123,0 0.2394,-0.0403 0.3512,-0.1195 0.0827,-0.0609 0.1363,-0.1355 0.162,-0.2237 0.018,-0.0576 0.0263,-0.1673 0.0263,-0.3287 z m 3.6785,1.2241 h -0.6801 v -1.3011 c 0,-0.2752 -0.0149,-0.4529 -0.0437,-0.534 -0.029,-0.0803 -0.0768,-0.1434 -0.1421,-0.1886 -0.0656,-0.0442 -0.1438,-0.0672 -0.2356,-0.0672 -0.1184,0 -0.2241,0.0321 -0.3175,0.096 -0.0932,0.0647 -0.1579,0.1491 -0.1925,0.2546 -0.0349,0.1059 -0.052,0.3008 -0.052,0.5859 v 1.1544 h -0.6803 v -2.5487 h 0.6313 v 0.3745 c 0.2249,-0.2884 0.5075,-0.4326 0.8482,-0.4326 0.1494,0 0.2877,0.0268 0.4116,0.08 0.1239,0.0543 0.2182,0.1223 0.2818,0.2059 0.0636,0.0833 0.1081,0.1777 0.133,0.2835 0.0257,0.1055 0.0379,0.2563 0.0379,0.4529 z m 3.0479,0 h -0.6314 V 130.25 c -0.1051,0.1458 -0.229,0.2541 -0.3719,0.3254 -0.143,0.0713 -0.2868,0.1064 -0.4323,0.1064 -0.2959,0 -0.5487,-0.1179 -0.7594,-0.3539 -0.2099,-0.2361 -0.3158,-0.5653 -0.3158,-0.9872 0,-0.4326 0.1026,-0.761 0.3075,-0.9856 0.2049,-0.2245 0.4643,-0.3374 0.7777,-0.3374 0.2867,0 0.5356,0.1187 0.7456,0.3555 v -1.2676 h 0.68 z m -1.8159,-1.3296 c 0,0.2719 0.0382,0.4685 0.1143,0.5905 0.1089,0.1754 0.2627,0.264 0.4596,0.264 0.1568,0 0.2898,-0.0663 0.3999,-0.1985 0.109,-0.1318 0.1645,-0.3292 0.1645,-0.5913 0,-0.2925 -0.0539,-0.5039 -0.1595,-0.6324 -0.1068,-0.1289 -0.2431,-0.1936 -0.4099,-0.1936 -0.1612,0 -0.2959,0.0639 -0.4051,0.1911 -0.109,0.1269 -0.1638,0.3169 -0.1638,0.5702 z m 3.5275,-1.2191 v 0.5373 h -0.4646 v 1.0275 c 0,0.2081 0.004,0.3292 0.0133,0.3638 0.009,0.0342 0.029,0.0622 0.0603,0.0852 0.0315,0.022 0.0702,0.0335 0.1147,0.0335 0.0639,0 0.1546,-0.0222 0.2746,-0.0647 l 0.0578,0.5228 c -0.1587,0.0671 -0.3371,0.1006 -0.5381,0.1006 -0.1223,0 -0.2329,-0.0206 -0.3313,-0.0606 -0.0985,-0.0409 -0.1704,-0.0943 -0.2166,-0.159 -0.0462,-0.0647 -0.0777,-0.1524 -0.096,-0.2629 -0.0138,-0.0779 -0.0212,-0.2369 -0.0212,-0.4751 v -1.1111 h -0.3126 v -0.5373 h 0.3126 v -0.5072 l 0.6825,-0.3934 v 0.9006 z m 1.9608,1.7375 0.6787,0.1124 c -0.0877,0.2465 -0.2249,0.4342 -0.4132,0.5628 -0.1878,0.1294 -0.4232,0.1933 -0.7061,0.1933 -0.4466,0 -0.7774,-0.1442 -0.9923,-0.4343 -0.1692,-0.2316 -0.2544,-0.5249 -0.2544,-0.878 0,-0.4228 0.1115,-0.7539 0.3346,-0.993 0.2224,-0.2393 0.5042,-0.3588 0.8444,-0.3588 0.3827,0 0.6844,0.1253 0.906,0.3758 0.2207,0.2509 0.3263,0.6341 0.3172,1.1511 h -1.7047 c 0.005,0.1999 0.0595,0.3556 0.1645,0.4664 0.1049,0.1113 0.2362,0.1669 0.3922,0.1669 0.1067,0 0.1961,-0.0285 0.2688,-0.0861 0.0727,-0.0581 0.1281,-0.1505 0.1643,-0.2785 z m 0.039,-0.6815 c -0.005,-0.1957 -0.0553,-0.3441 -0.1521,-0.4458 -0.0968,-0.1014 -0.2149,-0.1524 -0.3537,-0.1524 -0.1488,0 -0.2708,0.0543 -0.3676,0.1615 -0.0968,0.1066 -0.1446,0.2525 -0.143,0.4367 z m -28.1138,6.9843 v -3.5189 h 1.0727 l 0.6436,2.4006 0.6363,-2.4006 h 1.0753 v 3.5189 h -0.6652 v -2.77 l -0.7052,2.77 h -0.6897 l -0.7025,-2.77 v 2.77 z m 4.1356,-2.8944 v -0.6245 h 0.68 v 0.6245 z m 0,2.8944 v -2.5487 h 0.68 v 2.5487 z m 1.3526,0 v -3.5189 h 0.6812 v 1.8672 l 0.7959,-0.897 h 0.8377 l -0.8784,0.9307 0.9412,1.618 h -0.7326 l -0.6472,-1.1446 -0.3166,0.3284 v 0.8162 z m 3.434,0 h -0.6803 v -2.5487 h 0.6316 v 0.3621 c 0.1082,-0.1713 0.2058,-0.2843 0.2918,-0.3385 0.0865,-0.0541 0.1842,-0.0817 0.2942,-0.0817 0.1552,0 0.304,0.0425 0.4478,0.1277 l -0.2107,0.5875 c -0.114,-0.0729 -0.2207,-0.1099 -0.3189,-0.1099 -0.096,0 -0.1762,0.0255 -0.2423,0.0778 -0.0669,0.0516 -0.1181,0.1459 -0.1562,0.2818 -0.0379,0.136 -0.057,0.4211 -0.057,0.8545 z m 1.1206,-1.311 c 0,-0.2234 0.0561,-0.4405 0.167,-0.6502 0.1112,-0.2092 0.2691,-0.3696 0.4732,-0.4795 0.2041,-0.1105 0.4323,-0.1661 0.6845,-0.1661 0.3883,0 0.7074,0.1252 0.9561,0.3758 0.2489,0.2508 0.3727,0.5669 0.3727,0.9496 0,0.3852 -0.1255,0.7046 -0.3758,0.9587 -0.2514,0.2539 -0.5672,0.38 -0.948,0.38 -0.2365,0 -0.4605,-0.0524 -0.6745,-0.1582 -0.2141,-0.1056 -0.377,-0.2605 -0.4882,-0.4644 -0.1109,-0.204 -0.167,-0.4523 -0.167,-0.7457 z m 0.6975,0.0362 c 0,0.253 0.0603,0.4466 0.1817,0.5809 0.1205,0.1343 0.2702,0.2015 0.448,0.2015 0.1775,0 0.3263,-0.0672 0.4463,-0.2015 0.1206,-0.1343 0.1809,-0.3295 0.1809,-0.5858 0,-0.2492 -0.0603,-0.4417 -0.1809,-0.576 -0.12,-0.1343 -0.2688,-0.2015 -0.4463,-0.2015 -0.1778,0 -0.3275,0.0672 -0.448,0.2015 -0.1214,0.1343 -0.1817,0.3284 -0.1817,0.5809 z m 2.4378,-1.2739 h 0.6272 v 0.3473 c 0.224,-0.2703 0.4918,-0.4054 0.8018,-0.4054 0.1645,0 0.3075,0.0334 0.4281,0.1006 0.1214,0.0671 0.2207,0.1688 0.2984,0.3048 0.1123,-0.136 0.2345,-0.2377 0.3653,-0.3048 0.1305,-0.0672 0.2699,-0.1006 0.4187,-0.1006 0.1884,0 0.3488,0.0383 0.4793,0.1146 0.1305,0.0753 0.2282,0.1875 0.2926,0.3341 0.047,0.1091 0.0702,0.2851 0.0702,0.5286 v 1.6295 h -0.68 v -1.4568 c 0,-0.2531 -0.0232,-0.4162 -0.0703,-0.4899 -0.063,-0.0957 -0.1595,-0.1442 -0.2898,-0.1442 -0.096,0 -0.1853,0.0288 -0.2696,0.0869 -0.0833,0.0573 -0.1438,0.1417 -0.1809,0.2533 -0.0373,0.1113 -0.0561,0.2868 -0.0561,0.5266 v 1.2241 h -0.6804 v -1.3968 c 0,-0.2484 -0.0124,-0.4082 -0.0362,-0.4803 -0.0241,-0.0721 -0.0622,-0.1253 -0.1126,-0.1603 -0.0511,-0.0354 -0.1197,-0.0535 -0.2074,-0.0535 -0.1048,0 -0.1991,0.028 -0.2826,0.0844 -0.0844,0.0557 -0.1447,0.1368 -0.1809,0.2426 -0.0365,0.1056 -0.0547,0.2802 -0.0547,0.525 v 1.2389 h -0.6801 z m 5.9484,1.7375 0.6787,0.1124 c -0.0877,0.2464 -0.2248,0.4342 -0.4132,0.5628 -0.1877,0.1294 -0.4231,0.1933 -0.7057,0.1933 -0.4469,0 -0.7777,-0.1442 -0.9926,-0.4343 -0.1692,-0.2316 -0.2544,-0.525 -0.2544,-0.8781 0,-0.4227 0.1114,-0.7538 0.3346,-0.9929 0.2224,-0.2393 0.5042,-0.3588 0.8446,-0.3588 0.3825,0 0.6842,0.1252 0.9057,0.3758 0.2207,0.2508 0.3264,0.6341 0.3172,1.1511 h -1.7046 c 0.005,0.1999 0.0594,0.3556 0.1645,0.4663 0.1048,0.1113 0.2365,0.167 0.3924,0.167 0.1068,0 0.1958,-0.0285 0.2686,-0.0861 0.0727,-0.0581 0.128,-0.1505 0.1642,-0.2785 z m 0.039,-0.6815 c -0.005,-0.1958 -0.0553,-0.3441 -0.1521,-0.4458 -0.0968,-0.1014 -0.2146,-0.1524 -0.3534,-0.1524 -0.1488,0 -0.271,0.0543 -0.3678,0.1615 -0.0968,0.1066 -0.1447,0.2524 -0.143,0.4367 z m 3.4728,-0.3024 -0.6712,0.1198 c -0.0225,-0.133 -0.0736,-0.2328 -0.1538,-0.2999 -0.0802,-0.0672 -0.1831,-0.1009 -0.3103,-0.1009 -0.1704,0 -0.3051,0.0581 -0.406,0.1738 -0.1007,0.1162 -0.1513,0.3103 -0.1513,0.5826 0,0.3021 0.0515,0.5159 0.1538,0.6406 0.1026,0.1245 0.2398,0.1867 0.4126,0.1867 0.1297,0 0.2343,-0.0362 0.3169,-0.1091 0.0827,-0.0729 0.1405,-0.1982 0.1746,-0.375 l 0.6684,0.1121 c -0.0694,0.304 -0.2033,0.5343 -0.3999,0.6889 -0.1966,0.1557 -0.4605,0.2328 -0.7915,0.2328 -0.3761,0 -0.6762,-0.1171 -0.8994,-0.3523 -0.2237,-0.2352 -0.3354,-0.5612 -0.3354,-0.9773 0,-0.4203 0.1125,-0.7482 0.3363,-0.9823 0.2248,-0.2352 0.5282,-0.3522 0.9109,-0.3522 0.3128,0 0.5617,0.0671 0.7467,0.2006 0.1845,0.1335 0.3175,0.3375 0.3986,0.6111 z m 1.1936,-1.7238 v 1.2937 c 0.2198,-0.2539 0.4817,-0.3816 0.7865,-0.3816 0.1568,0 0.2976,0.0293 0.424,0.0866 0.1255,0.0576 0.2206,0.1313 0.2842,0.2204 0.0637,0.0902 0.1074,0.1894 0.1306,0.2983 0.024,0.1082 0.0354,0.2777 0.0354,0.5063 v 1.4952 h -0.6801 v -1.3469 c 0,-0.267 -0.0132,-0.4367 -0.0387,-0.5088 -0.0265,-0.0721 -0.0719,-0.1286 -0.1374,-0.1713 -0.0653,-0.0425 -0.1469,-0.0639 -0.2451,-0.0639 -0.1133,0 -0.214,0.0271 -0.3025,0.082 -0.0893,0.054 -0.1546,0.1359 -0.195,0.2459 -0.0415,0.1096 -0.0619,0.2719 -0.0619,0.4857 v 1.2773 h -0.6804 v -3.5189 z m 2.8593,1.7476 -0.6173,-0.1107 c 0.0694,-0.2465 0.1883,-0.4285 0.3579,-0.5472 0.17,-0.1179 0.4214,-0.1776 0.7552,-0.1776 0.304,0 0.5296,0.0359 0.6784,0.1072 0.148,0.0712 0.2528,0.1614 0.3131,0.2711 0.0603,0.1099 0.091,0.3106 0.091,0.6039 l -0.008,0.7873 c 0,0.2237 0.0108,0.389 0.0332,0.4957 0.0213,0.1055 0.0628,0.2204 0.1222,0.3416 h -0.6737 c -0.0171,-0.045 -0.0395,-0.1113 -0.0652,-0.1991 -0.0108,-0.0403 -0.0191,-0.0663 -0.0238,-0.0795 -0.1167,0.1122 -0.2403,0.1958 -0.3725,0.2522 -0.1322,0.056 -0.2735,0.0837 -0.424,0.0837 -0.2646,0 -0.4737,-0.0713 -0.6258,-0.213 -0.153,-0.1426 -0.2287,-0.3227 -0.2287,-0.5407 0,-0.1433 0.0345,-0.2719 0.1039,-0.3851 0.0695,-0.113 0.1671,-0.199 0.2918,-0.2588 0.1247,-0.0598 0.3059,-0.1124 0.5412,-0.1574 0.3175,-0.0589 0.5379,-0.1146 0.6602,-0.1655 v -0.0672 c 0,-0.1302 -0.0321,-0.2221 -0.0966,-0.2777 -0.0644,-0.0548 -0.1858,-0.0828 -0.365,-0.0828 -0.1217,0 -0.2157,0.0238 -0.2835,0.0713 -0.0677,0.0468 -0.1225,0.1296 -0.1645,0.2483 z m 0.9096,0.5472 c -0.0866,0.0288 -0.2246,0.0631 -0.4138,0.1034 -0.1883,0.04 -0.3116,0.0795 -0.3703,0.117 -0.0885,0.0631 -0.133,0.1418 -0.133,0.2377 0,0.0949 0.0357,0.176 0.1068,0.2448 0.071,0.0688 0.1609,0.1034 0.271,0.1034 0.1231,0 0.2395,-0.0403 0.3512,-0.1196 0.0824,-0.0608 0.1361,-0.1354 0.1618,-0.2237 0.018,-0.0575 0.0263,-0.1672 0.0263,-0.3286 z m 2.5186,-1.3246 v 0.5373 h -0.4647 v 1.0275 c 0,0.208 0.004,0.3292 0.0133,0.3638 0.009,0.0342 0.0291,0.0622 0.0603,0.0852 0.0315,0.0219 0.0703,0.0335 0.1148,0.0335 0.0639,0 0.1546,-0.0222 0.2746,-0.0647 l 0.0578,0.5227 c -0.1587,0.0672 -0.3371,0.1007 -0.5382,0.1007 -0.1222,0 -0.2328,-0.0206 -0.3313,-0.0606 -0.0984,-0.0409 -0.1703,-0.0943 -0.2165,-0.159 -0.0462,-0.0647 -0.0777,-0.1525 -0.096,-0.2629 -0.0138,-0.0779 -0.0213,-0.2369 -0.0213,-0.4751 v -1.1111 h -0.3125 v -0.5373 h 0.3125 v -0.5072 l 0.6825,-0.3934 v 0.9006 z m 1.1236,2.5487 h -0.6803 v -2.5487 h 0.6316 v 0.3621 c 0.1082,-0.1713 0.2058,-0.2843 0.2918,-0.3385 0.0866,-0.0541 0.1842,-0.0817 0.2943,-0.0817 0.1551,0 0.3039,0.0425 0.4477,0.1277 l -0.2107,0.5875 c -0.114,-0.0729 -0.2207,-0.1099 -0.3189,-0.1099 -0.096,0 -0.1762,0.0255 -0.2423,0.0778 -0.0669,0.0516 -0.1181,0.1459 -0.1562,0.2818 -0.0379,0.136 -0.057,0.4211 -0.057,0.8545 z m 1.1206,-1.311 c 0,-0.2234 0.0562,-0.4405 0.167,-0.6502 0.1115,-0.2092 0.2694,-0.3696 0.4735,-0.4795 0.2038,-0.1105 0.432,-0.1661 0.6842,-0.1661 0.3883,0 0.7074,0.1252 0.9561,0.3758 0.2489,0.2508 0.3728,0.5669 0.3728,0.9496 0,0.3852 -0.1256,0.7046 -0.3759,0.9587 -0.2514,0.2539 -0.5672,0.38 -0.948,0.38 -0.2365,0 -0.4605,-0.0524 -0.6743,-0.1582 -0.214,-0.1056 -0.3769,-0.2605 -0.4884,-0.4644 -0.1108,-0.204 -0.167,-0.4523 -0.167,-0.7457 z m 0.6978,0.0362 c 0,0.253 0.0602,0.4466 0.1814,0.5809 0.1206,0.1343 0.2702,0.2015 0.448,0.2015 0.1775,0 0.3263,-0.0672 0.4464,-0.2015 0.1205,-0.1343 0.1808,-0.3295 0.1808,-0.5858 0,-0.2492 -0.0603,-0.4417 -0.1808,-0.576 -0.1201,-0.1343 -0.2689,-0.2015 -0.4464,-0.2015 -0.1778,0 -0.3274,0.0672 -0.448,0.2015 -0.1212,0.1343 -0.1814,0.3284 -0.1814,0.5809 z m 4.8275,1.2748 h -0.68 v -1.3011 c 0,-0.2752 -0.015,-0.4529 -0.0437,-0.534 -0.0291,-0.0804 -0.0769,-0.1434 -0.1422,-0.1886 -0.0655,-0.0442 -0.1438,-0.0672 -0.2356,-0.0672 -0.1184,0 -0.224,0.0321 -0.3175,0.0959 -0.0932,0.0647 -0.1579,0.1492 -0.1925,0.2547 -0.0348,0.1058 -0.052,0.3008 -0.052,0.5859 v 1.1544 h -0.68 v -2.5487 h 0.6311 v 0.3745 c 0.2248,-0.2884 0.5075,-0.4326 0.8482,-0.4326 0.1493,0 0.2876,0.0268 0.4115,0.08 0.1239,0.0543 0.2182,0.1223 0.2818,0.2059 0.0636,0.0833 0.1081,0.1776 0.133,0.2835 0.0257,0.1055 0.0379,0.2563 0.0379,0.4528 z m 0.6903,-2.8944 v -0.6245 h 0.6801 v 0.6245 z m 0,2.8944 v -2.5487 h 0.6801 v 2.5487 z m 1.3526,0 v -3.5189 h 0.6812 v 1.8672 l 0.7959,-0.897 h 0.8377 l -0.8783,0.9307 0.9411,1.618 h -0.7326 l -0.6472,-1.1446 -0.3166,0.3284 v 0.8162 z m -38.2709,4.1979 v -0.5933 h 1.5449 v 1.402 c -0.1505,0.1442 -0.3678,0.2711 -0.653,0.3808 -0.2851,0.1091 -0.5735,0.1639 -0.8653,0.1639 -0.3709,0 -0.695,-0.077 -0.971,-0.2311 -0.276,-0.1546 -0.4834,-0.375 -0.6222,-0.6626 -0.1389,-0.2876 -0.2083,-0.5998 -0.2083,-0.9373 0,-0.3662 0.0777,-0.6922 0.232,-0.9773 0.1555,-0.2843 0.382,-0.503 0.6812,-0.6546 0.2273,-0.1174 0.5108,-0.1755 0.8493,-0.1755 0.4406,0 0.7851,0.0919 1.0324,0.2744 0.2478,0.1837 0.4074,0.4367 0.4784,0.7605 l -0.7116,0.1319 c -0.0503,-0.173 -0.1446,-0.3098 -0.2826,-0.4096 -0.138,-0.1001 -0.31,-0.15 -0.5166,-0.15 -0.3128,0 -0.5617,0.0982 -0.7467,0.295 -0.1853,0.1974 -0.2771,0.4891 -0.2771,0.8764 0,0.417 0.0935,0.7309 0.2812,0.9398 0.1867,0.2089 0.432,0.3131 0.7351,0.3131 0.1505,0 0.3009,-0.0296 0.4522,-0.0878 0.1504,-0.0581 0.2802,-0.1294 0.3886,-0.2122 v -0.4465 z m 2.1497,-1.255 h 0.6272 v 0.3473 c 0.2238,-0.2703 0.4915,-0.4055 0.8015,-0.4055 0.1646,0 0.3075,0.0335 0.4281,0.1007 0.1214,0.0671 0.2207,0.1688 0.2984,0.3048 0.1123,-0.136 0.2345,-0.2377 0.3653,-0.3048 0.1306,-0.0672 0.2702,-0.1007 0.419,-0.1007 0.1884,0 0.3488,0.0384 0.4793,0.1146 0.1303,0.0754 0.2279,0.1875 0.2923,0.3342 0.047,0.1091 0.0703,0.2851 0.0703,0.5286 v 1.6294 h -0.6798 v -1.4567 c 0,-0.2531 -0.0232,-0.4162 -0.0703,-0.4899 -0.063,-0.0957 -0.1595,-0.1442 -0.2901,-0.1442 -0.0959,0 -0.1853,0.0288 -0.2696,0.0869 -0.0833,0.0573 -0.1438,0.1417 -0.1809,0.2533 -0.0373,0.1113 -0.0561,0.2867 -0.0561,0.5266 v 1.224 h -0.6803 v -1.3967 c 0,-0.2484 -0.0125,-0.4082 -0.0363,-0.4803 -0.024,-0.0721 -0.0622,-0.1253 -0.1125,-0.1604 -0.0512,-0.0353 -0.1198,-0.0534 -0.2074,-0.0534 -0.1049,0 -0.1992,0.0279 -0.2827,0.0844 -0.0843,0.0557 -0.1446,0.1368 -0.1809,0.2426 -0.0365,0.1056 -0.0547,0.2802 -0.0547,0.525 v 1.2388 h -0.6798 z m 4.431,2.5486 v -3.5188 h 0.6803 v 1.2676 c 0.2099,-0.2369 0.458,-0.3556 0.7456,-0.3556 0.3131,0 0.5717,0.113 0.7774,0.3375 0.2049,0.2245 0.3075,0.5472 0.3075,0.9683 0,0.435 -0.1051,0.7709 -0.3141,1.0061 -0.2091,0.2352 -0.4627,0.3522 -0.7611,0.3522 -0.1469,0 -0.2915,-0.0359 -0.4345,-0.1088 -0.143,-0.0729 -0.2663,-0.1804 -0.3695,-0.3229 v 0.3744 z m 0.6753,-1.3295 c 0,0.2637 0.0421,0.4586 0.1256,0.5855 0.1184,0.1796 0.2743,0.269 0.4704,0.269 0.1496,0 0.2777,-0.0639 0.3833,-0.1911 0.1059,-0.1269 0.1588,-0.3276 0.1588,-0.6012 0,-0.2909 -0.0537,-0.5014 -0.1604,-0.63 -0.1057,-0.1288 -0.242,-0.1935 -0.4091,-0.1935 -0.1629,0 -0.2984,0.063 -0.4065,0.1886 -0.1084,0.1261 -0.1621,0.3161 -0.1621,0.5727 z m 2.3892,1.3295 v -3.5188 h 0.7174 v 1.3847 h 1.4038 v -1.3847 h 0.7165 v 3.5188 h -0.7165 v -1.5384 h -1.4038 v 1.5384 z"
           style="fill:#000000;fill-opacity:1;fill-rule:evenodd"
           id="path7115"
           inkscape:connector-curvature="0"
           inkscape:export-xdpi="300.08279"
           inkscape:export-ydpi="300.08279" />
        <path
           d="m 144.69487,123.2424 c -7.0789,2.5694 -17.4677,4.1977 -29.0162,4.1977 -21.243297,0 -38.569397,-5.5059 -38.569397,-12.256 0,-4.3333 7.1403,-8.1538 17.8719,-10.3342 -10.0355,2.8137 -16.3806,6.7088 -16.161,10.7012 0.3805,6.9255 20.3684,11.5908 44.494197,10.3855 7.7925,-0.3893 15.0861,-1.3456 21.3805,-2.6942 z"
           style="fill:#e30016;fill-opacity:1;fill-rule:evenodd"
           id="path7117"
           inkscape:connector-curvature="0"
           inkscape:export-xdpi="300.08279"
           inkscape:export-ydpi="300.08279" />
      </g>
    </g>
  </g>
</svg>
